<svg width="512" height="512" viewBox="0 0 512 512" fill="none" xmlns="http://www.w3.org/2000/svg">
<path d="M0 20C0 8.95431 8.95431 0 20 0H492C503.046 0 512 8.95431 512 20V492C512 503.046 503.046 512 492 512H20C8.95431 512 0 503.046 0 492V20Z" fill="#4267B2"/>
<rect x="436" y="271" width="360" height="31" rx="15" transform="rotate(180 436 271)" fill="white"/>
<rect x="436" y="364" width="360" height="31" rx="15" transform="rotate(180 436 364)" fill="white"/>
<rect x="436" y="178" width="360" height="31" rx="15" transform="rotate(180 436 178)" fill="white"/>
<path d="M396 203C418.091 203 436 185.091 436 163C436 140.909 418.091 123 396 123C373.909 123 356 140.909 356 163C356 185.091 373.909 203 396 203Z" fill="white"/>
<path d="M116 389C138.091 389 156 371.091 156 349C156 326.909 138.091 309 116 309C93.9086 309 76 326.909 76 349C76 371.091 93.9086 389 116 389Z" fill="white"/>
<path d="M296 296C318.091 296 336 278.091 336 256C336 233.909 318.091 216 296 216C273.909 216 256 233.909 256 256C256 278.091 273.909 296 296 296Z" fill="white"/>
</svg>
